<svg xmlns="http://www.w3.org/2000/svg" aria-hidden="true" style="position:absolute;width:0;height:0;overflow:hidden">
  <defs>
    <symbol id="icon-logo-header" viewBox="0 0 229 32">
      <path d="M0 32V0h5.702l14.084 10.383h.213L34.083 0h5.702v32h-6.808V8.951l-9.659 6.803V32H16.51V15.754L6.809 8.951V32H.001zM46.174 32V0h6.808v32h-6.808zM59.356 32V0h6.893l21.53 23.004V0h6.808v32h-6.893L66.164 8.951V32h-6.808zM100.96 32V0h6.808v32h-6.808zM114.142 32V0h5.701l14.084 10.383h.213L148.224 0h5.702v32h-6.808V8.951l-9.659 6.803V32h-6.808V15.754l-9.701-6.803V32h-6.808zM157.764 32l13.701-32h10.51l13.701 32h-7.404l-2.893-6.758h-17.317L165.169 32h-7.403zm12.764-12.576h12.382l-5.914-13.829h-.553l-5.914 13.829zM199.51 32V0h6.808v26.182h22.253V32H199.51z"/>
    </symbol>
    <symbol id="icon-header-menu" viewBox="0 0 32 32">
      <path stroke-linecap="round" stroke-linejoin="round" stroke-width="2" d="M28 13.333H4M28 8H4M28 18.667H4M28 24H4"/>
    </symbol>
    <symbol id="icon-menu-close" viewBox="0 0 32 32">
      <path stroke-linecap="round" stroke-linejoin="round" stroke-width="2" d="M24 8 8 24M8 8l16 16"/>
    </symbol>
  </defs>
</svg>
