<svg xmlns="http://www.w3.org/2000/svg" aria-hidden="true" style="position:absolute;width:0;height:0;overflow:hidden">
  <defs>
  <symbol id="icon-error" viewBox="0 0 32 32">
<path d="M14.667 20h2.667v2.667h-2.667v-2.667zM14.667 9.333h2.667v8h-2.667v-8zM15.987 2.667c-7.36 0-13.32 5.973-13.32 13.333s5.96 13.333 13.32 13.333c7.373 0 13.347-5.973 13.347-13.333s-5.973-13.333-13.347-13.333zM16 26.667c-5.893 0-10.667-4.773-10.667-10.667s4.773-10.667 10.667-10.667c5.893 0 10.667 4.773 10.667 10.667s-4.773 10.667-10.667 10.667z"></path>
</symbol>
  <symbol id="icon-form-check" viewBox="0 0 32 32">
<path stroke-linejoin="round" stroke-linecap="round" stroke-miterlimit="4" stroke-width="3.6923" d="M26.666 8l-14.667 14.667-6.667-6.667"></path>
</symbol>
    <symbol id="icon-logo" viewBox="0 0 200 32">
      <path d="M0 28V0h4.989l12.323 9.085h.186L29.821 0h4.989v28h-5.957V7.832l-8.451 5.952v14.215h-5.957V13.784L5.956 7.832V28H-.001zM40.403 28V0h5.957v28h-5.957zM51.937 28V0h6.031l18.839 20.129V0h5.957v28h-6.031L57.894 7.832V28h-5.957zM88.34 28V0h5.957v28H88.34zM99.874 28V0h4.989l12.323 9.085h.186L129.695 0h4.989v28h-5.957V7.832l-8.451 5.952v14.215h-5.957V13.784l-8.489-5.952V28h-5.957zM138.043 28l11.988-28h9.196l11.988 28h-6.478l-2.532-5.913h-15.153L144.52 28h-6.478zm11.169-11.004h10.834l-5.175-12.101h-.484l-5.175 12.101zM174.571 28V0h5.957v22.909H200V28h-25.429z"/>
    </symbol>
    <symbol id="icon-facebook" viewBox="0 0 32 32">
      <path d="M29 16c0-2.571-.762-5.085-2.191-7.222S23.35 4.974 20.975 3.99A13.004 13.004 0 0 0 6.808 6.808a13.002 13.002 0 0 0 1.97 20.001A13.003 13.003 0 0 0 16 29a13.014 13.014 0 0 0 13-13zM17 26.95V19h3a.997.997 0 0 0 1-1 .997.997 0 0 0-1-1h-3v-3a2 2 0 0 1 2-2h2a.997.997 0 0 0 1-1 .997.997 0 0 0-1-1h-2a4.014 4.014 0 0 0-4 4v3h-3a.997.997 0 0 0-1 1 .997.997 0 0 0 1 1h3v7.95a11.003 11.003 0 0 1-9.989-11.455 10.996 10.996 0 0 1 18.587-7.453 10.997 10.997 0 0 1-6.6 18.908z"/>
    </symbol>
    <symbol id="icon-instagram" viewBox="0 0 32 32">
      <path d="M16 10a5.998 5.998 0 0 0-4.242 10.243 5.996 5.996 0 0 0 6.539 1.301 5.999 5.999 0 0 0-2.296-11.543zm0 10a4.004 4.004 0 0 1-3.695-2.469 3.992 3.992 0 0 1 .867-4.359A4 4 0 0 1 20 16a4.014 4.014 0 0 1-4 4zm5.5-16.5h-11a6.999 6.999 0 0 0-7 7v11a6.999 6.999 0 0 0 7 7h11a7.003 7.003 0 0 0 7-7v-11a7.003 7.003 0 0 0-7-7zm5 18c0 .657-.129 1.307-.381 1.913s-.62 1.158-1.084 1.622A5.004 5.004 0 0 1 21.5 26.5h-11c-.657 0-1.307-.129-1.913-.381s-1.158-.62-1.622-1.084A5.004 5.004 0 0 1 5.5 21.5v-11a4.997 4.997 0 0 1 5-5h11c.657 0 1.307.129 1.913.381s1.158.62 1.622 1.084A5.004 5.004 0 0 1 26.5 10.5v11zM24 9.5a1.495 1.495 0 0 1-.926 1.385 1.496 1.496 0 0 1-1.635-.326c-.21-.21-.353-.477-.41-.768s-.028-.593.085-.867a1.5 1.5 0 0 1 2.885.574z"/>
    </symbol>
    <symbol id="icon-youtube" viewBox="0 0 32 32">
      <path d="m20.55 15.162-6-4a1.035 1.035 0 0 0-1.025-.05A.997.997 0 0 0 13 12v8c-.001.182.047.36.139.517s.226.285.386.371c.147.074.31.112.475.112a1.05 1.05 0 0 0 .55-.162l6-4a1.003 1.003 0 0 0 .454-.837.99.99 0 0 0-.454-.837zM15 18.137v-4.275l3.2 2.137-3.2 2.138zm14.288-9.412a2.937 2.937 0 0 0-1.813-2.038C23.2 5.037 16.375 5.049 16 5.049S8.8 5.036 4.525 6.687a2.944 2.944 0 0 0-1.812 2.038c-.325 1.238-.712 3.513-.712 7.275s.388 6.038.712 7.275a2.946 2.946 0 0 0 1.812 2.038c4.1 1.587 10.525 1.637 11.387 1.637h.175c.862 0 7.287-.05 11.387-1.637a2.944 2.944 0 0 0 1.813-2.038c.325-1.238.712-3.513.712-7.275s-.388-6.037-.712-7.275zm-1.938 14.05a.984.984 0 0 1-.588.675C22.8 24.975 16.074 24.95 16 24.95h-.012c-.063 0-6.788.025-10.75-1.5a.982.982 0 0 1-.588-.675C4.35 21.638 4 19.55 4 16s.35-5.637.65-6.775a.984.984 0 0 1 .588-.675c3.813-1.463 10.213-1.5 10.737-1.5H16c.075 0 6.8-.025 10.762 1.5a.98.98 0 0 1 .588.675c.3 1.137.65 3.225.65 6.775s-.35 5.638-.65 6.775z"/>
    </symbol>
  </defs>
</svg>