<svg xmlns="http://www.w3.org/2000/svg" width="1136" height="1024">
  <path d="M-9.286 902.857v-912H153.21L554.6 286.779h6.062L962.052-9.143h162.499v912H930.523V245.962l-275.274 193.88v463.015H461.225V439.842l-276.486-193.88v656.895H-9.286zM1306.684 902.857v-912h194.028v912h-194.028zM1682.37 902.857v-912h196.452l613.607 655.617V-9.143h194.028v912h-196.452l-613.607-656.895v656.895H1682.37zM2868.074 902.857v-912h194.028v912h-194.028zM3243.766 902.857v-912h162.493l401.391 295.922h6.064L4215.105-9.143h162.493v912h-194.022V245.962l-275.274 193.88v463.015h-194.028V439.842l-276.486-193.88v656.895h-194.022zM4486.978 902.857l390.472-912h299.527l390.48 912h-211.004l-82.465-192.601h-493.549l-82.465 192.601h-210.998zm363.798-358.422h352.879l-168.557-394.137h-15.765l-168.557 394.137zM5676.754 902.857v-912h194.028v746.179H6505v165.821h-828.246z"/>
</svg>
